<?xml version="1.0" encoding="iso-8859-1"?>
<!-- Uploaded to: SVG Repo, www.svgrepo.com, Generator: SVG Repo Mixer Tools -->
<!DOCTYPE svg PUBLIC "-//W3C//DTD SVG 1.1//EN" "http://www.w3.org/Graphics/SVG/1.1/DTD/svg11.dtd">
<svg fill="#000000" version="1.1" id="Capa_1" xmlns="http://www.w3.org/2000/svg" xmlns:xlink="http://www.w3.org/1999/xlink" 
	 width="800px" height="800px" viewBox="0 0 107.112 107.112"
	 xml:space="preserve">
<g>
	<g>
		<path d="M32.816,53.068c0.006-1.737,0.038-3.448,0.103-5.125c-0.071-0.05-0.137-0.109-0.21-0.159
			c-0.46-0.312-1.131-0.212-1.48,0.213c-0.721,0.877-1.332,1.074-2.397,0.738c-0.348-0.109-0.698-0.15-1.055-0.137
			c0.017,0.034,0.039,0.065,0.041,0.11c0.01,0.052,0.001,0.087,0.004,0.132c0.536,0.208,0.367,0.843,0.612,1.287
			c0.439-0.419,0.853-0.373,1.277,0.048c0.153,0.151,0.415,0.192,0.626,0.285c0.189,0.084,0.436,0.14,0.427,0.399
			c-0.008,0.214-0.226,0.298-0.397,0.363c-0.239,0.09-0.427-0.044-0.51-0.252c-0.131-0.324-0.3-0.507-0.662-0.33
			c-0.072,0.035-0.182,0.088-0.188,0.143c-0.021,0.19,0.118,0.46-0.229,0.466c-0.328,0.006-0.694,0.131-0.97-0.134
			c-0.319-0.306-0.756-0.31-1.201-0.606c0.086,0.213,0.126,0.305,0.16,0.399c0.082,0.225,0.591,0.378,0.152,0.689
			c-0.357,0.253-0.889,0.087-1.089-0.295c-0.019-0.037-0.037-0.077-0.046-0.117c-0.082-0.36-0.043-0.893-0.478-0.931
			c-0.162-0.014-0.294,0.048-0.417,0.134c-0.02,0.096-0.024,0.209-0.015,0.339c0.009,0.127-0.111,0.221-0.155,0.338
			c-0.106,0.29-0.037,0.487,0.282,0.574c0.263,0.072,0.518,0.171,0.772,0.266c0.435,0.161,0.487,0.487,0.136,0.802
			c-0.153,0.138-0.333,0.246-0.44,0.446c0.798,0.003,0.802,0.003,0.848,0.846c0.019,0.351,0.225,0.526,0.521,0.636
			c0.284,0.104,0.554,0.234,0.816,0.381c-0.026-0.607,0.208-0.695,1.002-0.629c0.841,0.069,1.73,0.235,2.43-0.49
			c0.126-0.131,0.309-0.252,0.51-0.174c0.245,0.097,0.082,0.334,0.142,0.496c0.005,0.014,0.003,0.022,0.007,0.035
			C31.753,53.613,32.139,53.116,32.816,53.068z"/>
		<path d="M32.736,56.616c0.036-0.054,0.082-0.083,0.125-0.117c0-0.017,0-0.034-0.001-0.051c-0.002,0-0.004,0-0.006,0.001
			c-0.111,0.041-0.222,0.18-0.314,0.348C32.605,56.768,32.67,56.713,32.736,56.616z"/>
		<path d="M32.175,57.289c0.146,0.037,0.135,0.271,0.148,0.294c-0.037-0.144,0.064-0.508,0.217-0.786
			c-0.215,0.098-0.426-0.099-0.636-0.125c-0.185-0.021-0.264-0.119-0.299-0.262C31.603,56.773,31.666,57.156,32.175,57.289z"/>
		<path d="M31.605,56.41c0-0.074,0.003-0.148,0.006-0.219c0.007-0.158-0.01-0.264-0.042-0.336c0.003,0.107,0.009,0.216,0.009,0.324
			C31.579,56.27,31.589,56.344,31.605,56.41z"/>
		<path d="M25.084,63.485c-0.031-0.087-0.044-0.179-0.068-0.267c-0.024-0.029-0.053-0.05-0.064-0.1
			c-0.262-1.162-0.597-2.309-0.728-3.495c-0.026-0.231-0.084-0.452-0.213-0.651c-0.326-0.498-0.583-0.506-0.878,0.014
			c-0.222,0.389-0.447,0.463-0.778,0.137c-0.14-0.139-0.385-0.261-0.511-0.143c-0.322,0.307-0.702,0.25-1.068,0.269
			c0.113,0.399,0.147,0.813,0.084,1.216c-0.095,0.602,0.13,1.119,0.332,1.646c0.168,0.437,0.535,0.558,0.979,0.503
			c0.198-0.023,0.454-0.201,0.536,0.152c0.269-0.459,0.647-0.312,0.952-0.104c0.38,0.262,0.737,0.545,1.162,0.743
			c0.213,0.099,0.397,0.28,0.416,0.56c0.006,0.09,0.026,0.153,0.054,0.204c0.002-0.009,0.004-0.017,0.007-0.024
			c-0.027-0.062-0.047-0.135-0.057-0.232C25.227,63.766,25.154,63.619,25.084,63.485z"/>
		<path d="M31.263,55.446c-0.121,0.071-0.194,0.218-0.244,0.387c0.264-0.106,0.466-0.164,0.55,0.022
			c-0.01-0.309-0.002-0.612,0.208-0.875c0.092-0.115,0.064-0.201,0.025-0.284C31.777,55.004,31.598,55.25,31.263,55.446z"/>
		<path d="M31.803,54.696c0.011-0.136-0.002-0.279-0.057-0.44c-0.001,0.096-0.018,0.188,0,0.291
			C31.755,54.598,31.78,54.646,31.803,54.696z"/>
		<path d="M22.715,62.781c-0.001-0.008-0.006-0.008-0.007-0.016h-0.001C22.713,62.768,22.715,62.783,22.715,62.781z"/>
		<path d="M18.561,23.822c-0.052,0.024-0.103,0.051-0.147,0.09v0.001h0.001C18.458,23.873,18.509,23.847,18.561,23.822z"/>
		<path d="M53.556,0C24.025,0,0,24.025,0,53.557c0,29.531,24.025,53.556,53.556,53.556s53.556-24.024,53.556-53.556
			C107.112,24.025,83.087,0,53.556,0z M20.431,12.473c-1.338,1.117-2.646,2.308-3.92,3.581c-3.23,3.224-5.957,6.651-8.185,10.28
			C11.527,21.035,15.637,16.347,20.431,12.473z M0.75,53.557c0-5.376,0.813-10.566,2.313-15.458
			c-1.447,4.86-2.172,10.012-2.172,15.458c0,5.188,0.666,10.101,1.972,14.752C1.497,63.623,0.75,58.678,0.75,53.557z M9.745,83.004
			c1.938,2.825,4.191,5.521,6.766,8.086c1.18,1.174,2.39,2.273,3.624,3.315C16.144,91.135,12.638,87.293,9.745,83.004z
			 M12.111,80.109c0.366,0.035,0.508,0.324,0.583,0.629c-0.009,0.219-0.046,0.469-0.275,0.436c-0.355-0.053-0.433-0.416-0.535-0.699
			C11.829,80.322,11.891,80.088,12.111,80.109z M14.18,79.454c1.317,0.354,1.956,1.386,2.466,2.535
			c0.167,0.377,0.172,0.762-0.157,1.037c-0.337,0.282-0.674,0.09-0.967-0.134C14.363,82.016,13.912,80.857,14.18,79.454z
			 M36.906,94.71c-0.225-0.022-0.52-0.063-0.491-0.34c0.027-0.265,0.357-0.229,0.567-0.274c0.208-0.043,0.392,0.063,0.386,0.293
			C37.361,94.658,37.124,94.682,36.906,94.71z M53.556,106.362c-0.639,0-1.272-0.026-1.906-0.048
			c-4.775-1.277-8.961-6.344-12.553-15.225c-0.447-1.105-0.858-2.248-1.258-3.402c-0.088-0.067-0.169-0.148-0.236-0.26
			c-0.475-0.209-0.952-0.412-1.421-0.631c-0.088-0.041-0.215-0.148-0.209-0.215c0.045-0.607-0.382-0.635-0.809-0.732
			c-0.579-0.133-0.875-0.684-1.331-1.008c-0.171-0.121-0.06-0.367,0.04-0.52c0.22-0.338,0.106-0.561-0.161-0.811
			c-0.37-0.347-0.545-1.496-0.347-1.949c0.138-0.313,0.438-0.271,0.695-0.332c-0.422-0.211-0.668-0.531-0.749-1.014
			c-0.07-0.427-0.512-0.593-0.836-0.32c-0.168,0.141-0.309,0.229-0.494,0.121c-0.289-0.172-0.401,0.02-0.452,0.227
			c-0.052,0.213,0.044,0.371,0.31,0.342c0.333-0.037,0.329,0.125,0.251,0.385c-0.277,0.922-0.269,0.922-1.233,0.683
			c-0.436-0.106-0.665,0.06-0.586,0.521c0.08,0.465,0.24,0.928,0.079,1.397c-0.125,0.362-0.234,0.762-0.785,0.426
			c-0.39-0.239-0.55,0.002-0.5,0.379c0.039,0.302-0.021,0.449-0.352,0.406c-0.193-0.022-0.295,0.125-0.419,0.239
			c-0.517,0.472-0.584,0.445-0.734-0.256c-0.017-0.084-0.036-0.166-0.054-0.248c-0.182-0.559-0.621-0.963-0.888-1.479
			c-0.283-0.545-0.897-0.684-1.509-0.664c-0.107,0.229-0.238,0.438,0.022,0.678c0.171,0.156,0.224,0.396,0.175,0.746
			c-0.744-0.607-1.562-0.908-2.476-0.916c-0.477-0.146-0.938-0.402-1.465-0.207c-0.054,0.021-0.155,0.027-0.181-0.004
			c-0.484-0.588-1.256-0.641-1.878-0.951c-0.783-0.391-1.266-1.115-2.028-1.494c-0.212-0.104-0.352-0.188-0.619-0.108
			c-0.338,0.103-0.741-0.052-0.813-0.42c-0.186-0.957-1.049-1.043-1.694-1.338c-0.738-0.341-1.025-0.738-0.788-1.543
			c-0.291-0.554-0.528-1.13-0.734-1.722c-0.117-0.334-0.304-0.645-0.652-0.807c-0.562-0.131-0.914-0.502-1.11-1.02
			c-0.225-0.59-0.791-0.711-1.267-0.947c-0.183-0.092-0.336,0-0.292,0.244c0.022,0.125,0.071,0.244,0.088,0.367
			c0.026,0.188,0.053,0.418-0.189,0.467c-0.244,0.047-0.349-0.18-0.338-0.361c0.038-0.646-0.286-1.154-0.553-1.699
			c-0.162-0.33-0.339-0.443-0.684-0.35c-0.576,0.156-0.978-0.092-1.251-0.586c-0.235-0.426-0.485-0.832-0.937-1.072
			c-0.397-0.211-0.113-0.564-0.158-0.852c-0.002-0.082-0.005-0.163-0.008-0.245c-0.536-0.302-0.615-0.858-0.766-1.374
			c-0.087-0.299-0.157-0.604-0.234-0.905c-0.202-0.927-0.927-1.64-1.058-2.597C3.206,63.252,3.117,63.153,3,63.189
			c-0.231,0.074-0.129,0.258-0.123,0.421c0.026,0.754,0.157,1.5,0.219,2.251c-0.129-0.199-0.26-0.396-0.393-0.592
			c-0.768-4.006-1.23-8.043-1.032-12.135c0.185-3.828,0.752-7.597,1.698-11.327c0.592-2.336,1.333-4.596,2.284-6.798l0,0
			c0.111-0.453,0.281-0.884,0.502-1.295c0.37-0.429,0.48-0.985,0.714-1.48c0.783-1.651,1.671-3.237,2.636-4.776
			c0.35-0.105,0.69-0.256,1.003-0.487C9.971,27.8,9.43,28.625,8.915,29.468c-0.351,0.574-0.543,1.208-0.829,1.807
			c-0.292,0.064-0.366,0.256-0.374,0.539c-0.007,0.266-0.124,0.395-0.321,0.373c0.222,0.248,0.275,0.618,0.494,0.916
			c0.296-0.35,0.658-0.604,0.856-1.001c0.43-0.864,1.084-1.566,1.698-2.29c0.595-0.7,1.134-1.443,1.707-2.149
			c0.657-0.811,1.369-1.628,2.235-2.262c0.301,0.084,0.562-0.004,0.791-0.197c0.159-0.133,0.333-0.24,0.518-0.333
			c0.871-0.444,1.104-0.366,1.448,0.484c-0.15,0.637-0.533,1.15-0.946,1.633c-0.673,0.788-1.495,1.451-1.724,2.561
			c-0.114,0.552-0.626,0.661-1.51,0.444c0.482,0.994,0.389,1.918-0.269,2.793c-0.137,0.183-0.233,0.352-0.493,0.239
			c-0.003-0.003-0.006-0.007-0.009-0.011c-0.136,0.464-0.253,0.92-0.742,1.217c-0.321,0.195-0.33,0.86-0.95,0.643
			c-0.016,0.08-0.052,0.162-0.044,0.24c0.016,0.181,0.104,0.533,0.184,0.462c0.408-0.354,0.688,0.62,1.052,0.068
			c0.171-0.259,0.444-0.291,0.708-0.355c0.704-0.173,0.772-0.341,0.39-0.97c-0.093-0.152-0.182-0.414,0.024-0.4
			c0.601,0.038,0.757-0.4,1.012-0.964c0.153,0.719,0.672,1.079,0.686,1.683c0.007,0.278,0.161,0.375,0.422,0.267
			c0.194-0.08,0.383-0.169,0.574-0.255c-0.037-0.002-0.074-0.004-0.11-0.007c-0.346-0.302-0.714-0.583-0.384-1.135
			c0.063-0.104-0.066-0.315-0.085-0.479c-0.083-0.694-0.115-1.38,0.458-1.918c0.087-0.041,0.174-0.082,0.261-0.123
			c0.638-0.479,1.104-1.126,1.648-1.695c0.295-0.308,0.546-0.549,1.058-0.445c0.457,0.092,0.947-0.04,1.325-0.388
			c-0.141-1.187,0.562-2.051,1.15-2.946c0.413-0.627,0.895-1.207,1.347-1.807c0.075-0.1,0.172-0.104,0.278-0.054
			c0.023-0.643,0.441-0.736,0.979-0.784c1.003-0.09,1.973-0.324,2.868-0.957c-0.285-0.217-0.648-0.117-0.817-0.393
			c-0.012-0.018-0.027-0.034-0.034-0.054c-0.258-0.694,0.421-0.868,0.715-1.246c0.2-0.256,0.497-0.411,0.833-0.186
			c0.322,0.216,0.312,0.771-0.043,1.111c-0.163,0.156-0.385,0.25-0.581,0.372c0.643,0.308,1.182-0.103,1.741-0.28
			c0.757-0.241,1.484-0.579,2.297-0.603c0.321,0.006,0.596-0.147,0.884-0.254c0.508-0.227,0.889,0.138,0.997,0.46
			c0.138,0.414,0.352,0.375,0.63,0.357c0.243-0.015,0.458,0.033,0.646,0.19c0.139,0.027,0.245,0.089,0.257,0.249
			c0.294,0.002,0.587,0.005,0.881,0.008c0.034-0.023,0.065-0.053,0.103-0.066c0.328-0.116,0.319-0.692,0.709-0.621
			c0.325,0.059,0.585,0.358,0.87,0.557c0.067,0.046,0.142,0.082,0.21,0.127c0.125,0.001,0.25,0.002,0.375,0.002
			c0.047,0.035,0.095,0.054,0.142,0.077c0.604-1.944,1.25-3.848,1.982-5.664c0.512-1.268,1.036-2.455,1.571-3.568
			c-0.31-0.341-0.465-0.341-0.693,0.098c-0.139,0.268-0.356,0.39-0.653,0.415c-1.165,0.1-1.606,0.993-2.039,1.886
			c-0.086,0.178-0.005,0.368,0.039,0.552c0.204,0.86,0,1.177-0.852,1.448c-0.509,0.162-1.09,0.304-1.539,0.165
			c-0.604-0.189-1.282-0.289-1.798-0.728c-0.156-0.134-0.308-0.368-0.442,0.016c-0.158,0.288,0.18,0.742-0.309,0.918
			c-0.56,0.202-1.095,0.552-1.724,0.189c-0.421-0.242-0.874-0.264-1.328-0.081c-0.227,0.091-0.441,0.169-0.563-0.141
			c-0.914,0.18-1.741,0.604-2.583,0.968c-1.027,0.445-1.741,1.259-2.305,2.215c-0.404,0.685-1,1.173-1.707,1.522
			c-0.266,0.131-0.531,0.021-0.798-0.039c-0.207-0.045-0.388-0.028-0.284,0.291c0.334,1.03,0.132,1.52-0.868,2.157
			c-0.126-0.294,0.068-0.522,0.15-0.772c0.049-0.147,0.043-0.299-0.11-0.387c-0.128-0.074-0.244-0.001-0.349,0.071
			c-0.291,0.197-0.434,0.505-0.595,0.799c-0.124,0.226-0.264,0.46-0.569,0.405c-0.286-0.052-0.304-0.31-0.336-0.541
			c-0.302-0.06-0.605-0.119-0.874-0.171c-0.167-0.713,0.13-1.394,0.12-2.099c0.018-0.026,0.035-0.053,0.052-0.078
			c0.5,0.045,1.065-0.312,1.102-0.794c0.027-0.358,0.183-0.53,0.467-0.654c0.477-0.03,0.918-0.109,0.946-0.729
			c0.008-0.169,0.126-0.261,0.26-0.336c0.29-0.045,0.635,0.171,0.866-0.179c0.031-0.003,0.063-0.006,0.093-0.009
			c0.349-0.122,0.583-0.336,0.795-0.663c0.302-0.465,0.833-0.691,1.367-0.787c0.961-0.173,1.933-0.301,2.602-1.123
			c0.476-0.584,1.175-0.872,1.728-1.352c0.06-0.052,0.167-0.113,0.225-0.093c0.743,0.261,1.395-0.141,2.086-0.261
			c0.368-0.063,0.695-0.153,0.918-0.476c0.035-0.051,0.12-0.13,0.134-0.122c0.624,0.401,1.084-0.205,1.631-0.26
			c0.154-0.015,0.256,0.065,0.259,0.208c0.011,0.708,0.352,0.309,0.582,0.165c0.172-0.108,0.309-0.272,0.51-0.456
			c-0.319-0.182-0.604-0.346-0.89-0.507c-0.113-0.064-0.223-0.134-0.223-0.28c0-0.18,0.133-0.266,0.282-0.288
			c0.563-0.086,1.014-0.565,1.706-0.292c0.449,0.177,1.008-0.048,1.197-0.652c0.165-0.523,0.665-0.603,1.068-0.804
			c0.44-0.22,0.951-0.312,1.166-0.864c0.118-0.304,0.484-0.304,0.754-0.402c1.119-0.41,2.239-0.816,3.363-1.209
			c0.093-0.033,0.188-0.053,0.284-0.067C45.61,4.145,48.49,1.651,51.626,0.8c0.64-0.023,1.28-0.049,1.926-0.049
			c29.117,0,52.805,23.688,52.805,52.806C106.357,82.676,82.674,106.362,53.556,106.362z"/>
	</g>
</g>
</svg>